<?xml version="1.0" standalone="no"?>
<!DOCTYPE svg PUBLIC "-//W3C//DTD SVG 20010904//EN"
 "http://www.w3.org/TR/2001/REC-SVG-20010904/DTD/svg10.dtd">
<svg version="1.0" xmlns="http://www.w3.org/2000/svg"
 width="320.000000pt" height="320.000000pt" viewBox="0 0 320.000000 320.000000"
 preserveAspectRatio="xMidYMid meet">
<metadata>
Created by potrace 1.14, written by Peter Selinger 2001-2017
</metadata>
<g transform="translate(0.000000,320.000000) scale(0.100000,-0.100000)"
fill="#000000" stroke="none">
<path d="M1477 3084 c-1 -2 -27 -6 -57 -9 -30 -3 -66 -7 -80 -9 -38 -5 -234
-58 -245 -66 -5 -3 -32 -15 -60 -25 -57 -20 -167 -75 -176 -88 -3 -5 -8 -7
-10 -6 -3 2 -45 -24 -145 -92 -100 -67 -260 -239 -350 -376 -53 -80 -124 -219
-124 -241 0 -7 -4 -12 -10 -12 -5 0 -9 -3 -8 -7 0 -5 -1 -15 -4 -23 -20 -59
-40 -122 -43 -137 -2 -10 -4 -19 -5 -20 -3 -3 -4 -7 -13 -53 -4 -19 -9 -46
-12 -60 -26 -125 -25 -402 2 -525 2 -11 6 -31 9 -45 4 -20 18 -75 29 -110 1
-3 5 -18 10 -35 5 -16 14 -45 22 -62 7 -18 14 -36 14 -40 0 -5 7 -19 14 -33 7
-14 28 -54 46 -90 35 -71 109 -189 134 -213 8 -9 15 -18 15 -21 0 -18 169
-187 240 -240 30 -22 57 -43 60 -47 36 -40 254 -153 386 -199 87 -30 110 -36
169 -46 17 -3 37 -8 45 -11 73 -27 435 -24 560 5 19 5 38 9 43 10 4 1 8 2 10
3 1 0 10 2 20 4 47 9 157 46 162 55 4 6 10 8 15 5 5 -3 39 11 77 30 37 19 73
35 80 35 6 0 13 3 15 8 2 4 32 25 68 46 122 73 250 185 363 317 147 172 283
463 312 669 3 25 8 52 10 60 7 23 17 167 16 235 0 57 -2 76 -15 185 -18 141
-64 292 -134 440 -39 83 -159 270 -173 270 -5 0 -9 6 -9 13 0 17 -197 215
-222 223 -10 3 -18 9 -18 13 0 9 -165 121 -179 121 -5 0 -11 3 -13 8 -5 11
-168 88 -180 84 -5 -1 -8 3 -8 10 0 6 -3 9 -6 5 -3 -3 -18 -1 -33 5 -58 23
-210 60 -304 75 -36 5 -305 12 -310 7z"/>
</g>
</svg>
