<?xml version="1.0" encoding="UTF-8" standalone="no" ?>
<!DOCTYPE svg PUBLIC "-//W3C//DTD SVG 1.1//EN" "http://www.w3.org/Graphics/SVG/1.1/DTD/svg11.dtd">
<svg xmlns="http://www.w3.org/2000/svg" xmlns:xlink="http://www.w3.org/1999/xlink" version="1.1" width="1300" height="40" viewBox="0 0 1300 40" xml:space="preserve">
<desc>Created with Fabric.js 3.6.3</desc>
<defs>
</defs>
<g transform="matrix(12.48 0 0 0.17 665 21.5)"  >
<polygon style="stroke: rgb(0,0,0); stroke-width: 0; stroke-dasharray: none; stroke-linecap: butt; stroke-dashoffset: 0; stroke-linejoin: miter; stroke-miterlimit: 4; fill: rgb(124,111,100); fill-rule: nonzero; opacity: 1;" vector-effect="non-scaling-stroke"  points="-50,-50 -50,50 50,50 50,-50 " />
</g>
<g transform="matrix(0.1 0 0 0.1 22.34 16.3)" id="path0"  >
<path style="stroke: none; stroke-width: 1; stroke-dasharray: none; stroke-linecap: butt; stroke-dashoffset: 0; stroke-linejoin: miter; stroke-miterlimit: 4; fill: rgb(124,111,100); fill-rule: evenodd; opacity: 1;"  transform=" translate(-200.19, -200.64)" d="M 201.543 40.039 C 199.917 41.141 191.186 52.872 178.14 71.484 C 162.081 94.396 156.985 101.138 155.814 101.025 C 154.98 100.944 152.363 100.308 150 99.611 C 138.859 96.326 117.628 102.893 82.491 120.493 C 73.192 125.15 71.9 126.898 36.174 183.119 C -2.846 244.524 0.439 238.309 0.412 250.781 C 0.375 267.602 9.321 280.283 24.355 284.721 C 28.194 285.855 28.174 285.493 24.697 290.729 L 21.775 295.129 L 17.936 320.807 C 12.688 355.905 12.825 358.237 20.367 362.137 C 26.014 365.058 26.786 364.772 55.774 349.015 C 72.969 339.669 74.504 338.985 75.255 340.333 C 84.288 356.535 109.682 361.499 125.977 350.248 L 128.906 348.225 L 131.836 350.248 C 154.921 366.188 187.5 350.019 187.5 322.622 L 187.5 317.364 L 194.336 320.306 C 234.817 337.729 284.537 337.404 324.117 319.457 C 326.87 318.209 329.25 317.188 329.405 317.188 C 329.56 317.188 329.688 324.265 329.688 332.916 C 329.688 352.777 331.573 356.582 341.391 356.533 C 346.775 356.506 395.969 331.728 398.379 327.829 L 400.023 325.169 L 399.816 250.147 L 399.609 175.126 L 397.656 173.035 C 393.537 168.627 394.903 168.749 349.843 168.76 L 308.203 168.77 L 266.995 148.643 C 244.33 137.573 225.92 128.153 226.084 127.711 C 226.248 127.268 233.106 117.312 241.324 105.587 C 265.025 71.77 265.413 75.155 235.419 54.185 C 209.67 36.183 208.163 35.554 201.543 40.039 M 221.241 74.095 L 229.592 79.932 L 226.216 84.693 C 224.359 87.311 221.453 91.446 219.758 93.883 L 216.676 98.312 L 207.81 92.117 C 202.933 88.71 198.799 85.778 198.623 85.602 C 197.897 84.876 211.099 67.194 211.977 67.716 C 212.479 68.014 216.648 70.885 221.241 74.095 M 193.394 111.776 C 198.316 115.245 202.344 118.211 202.344 118.366 C 202.344 118.522 187.129 140.38 168.533 166.942 L 134.722 215.234 L 120.903 215.448 L 107.083 215.661 L 145.534 160.605 C 166.682 130.325 184.088 105.532 184.214 105.509 C 184.34 105.487 188.471 108.307 193.394 111.776 M 136.961 130.315 C 90.661 196.958 74.443 219.507 71.96 220.692 C 60.786 226.02 50.719 239.115 47.63 252.342 C 44.391 266.205 24.234 264.91 24.222 250.838 C 24.218 246.932 86.834 147.007 91.401 143.63 C 94.771 141.138 137.605 122.706 140.086 122.679 C 142.277 122.656 142.269 122.675 136.961 130.315 M 256.641 170.786 L 301.172 192.578 L 315.43 192.835 L 329.688 193.093 L 329.688 241.519 L 329.688 289.946 L 321.672 293.698 C 276.666 314.767 237.187 314.33 192.188 292.266 L 180.078 286.328 L 134.375 285.938 L 88.672 285.547 L 84.207 283.355 C 66.879 274.845 66.651 251.166 83.81 241.997 C 87.091 240.244 87.364 240.231 132.422 239.721 C 175.25 239.235 180.647 238.951 189.105 236.731 C 206.479 232.171 230.203 217.562 233.616 209.321 C 237.042 201.049 231.236 192.188 222.39 192.188 C 218.691 192.188 216.775 193.306 207.315 200.984 C 201.772 205.484 192.836 210.224 185.885 212.353 C 180.782 213.915 165.827 216.088 165.111 215.371 C 164.638 214.898 211.091 148.454 211.678 148.765 C 211.915 148.89 232.148 158.8 256.641 170.786 M 376.563 253.12 L 376.563 313.271 L 364.844 319.141 L 353.125 325.01 L 353.125 258.989 L 353.125 192.969 L 364.844 192.969 L 376.563 192.969 L 376.563 253.12 M 67.628 301.952 C 70.345 303.755 71.696 305.128 71.334 305.715 C 65.113 315.817 63.514 317.212 49.695 324.598 L 41.188 329.145 L 41.653 326.487 C 41.909 325.024 42.692 319.609 43.393 314.453 L 44.667 305.078 L 49.774 297.521 L 54.88 289.963 L 59.117 294.539 C 61.447 297.055 65.277 300.391 67.628 301.952 M 117.006 317.138 C 116.522 325.624 115.078 328.558 110.138 331.089 C 99.859 336.355 89.02 322.945 95.806 313.357 L 98.047 310.19 L 107.726 310.173 L 117.404 310.156 L 117.006 317.138 M 163.881 317.138 C 162.667 338.426 142.014 338.318 140.8 317.018 L 140.408 310.156 L 152.344 310.156 L 164.279 310.156 L 163.881 317.138" stroke-linecap="round" />
</g>
</svg>